<?xml version="1.0" encoding="UTF-8"?>
<svg id="Layer_1" data-name="Layer 1" xmlns="http://www.w3.org/2000/svg" viewBox="0 0 612 216">
  <defs>
    <style>
      .cls-1 {
        fill: #231f20;
        stroke-width: 0px;
      }
    </style>
  </defs>
  <polygon class="cls-1" points="423.7 165.59 417.53 165.59 417.53 159.4 412.46 159.4 412.46 175.02 417.5 175.02 417.5 168.62 423.7 168.62 423.7 175.02 428.74 175.02 428.74 159.4 423.7 159.4 423.7 165.59"/>
  <path class="cls-1" d="M444.09,159.08c-6.02,0-9.43,2.99-9.43,8.13s3.4,8.13,9.43,8.13,9.43-2.99,9.43-8.13-3.4-8.13-9.43-8.13ZM444.09,172.32c-3.43,0-4.13-2.73-4.13-5.04,0-2.44.71-5.17,4.13-5.17s4.13,2.73,4.13,5.17c0,2.31-.71,5.04-4.13,5.04Z"/>
  <polygon class="cls-1" points="470.38 169.98 470.33 169.98 467.36 159.4 459.37 159.4 459.37 175.02 463.78 175.02 463.78 161.85 463.83 161.8 467.83 175.02 472.37 175.02 476.63 161.91 476.68 161.95 476.68 175.02 481.09 175.02 481.09 159.4 473.25 159.4 470.38 169.98"/>
  <polygon class="cls-1" points="487.87 175.02 501.73 175.02 501.73 171.99 492.91 171.99 492.91 168.68 501.03 168.68 501.03 165.65 492.91 165.65 492.91 162.43 501.73 162.43 501.73 159.4 487.87 159.4 487.87 175.02"/>
  <path class="cls-1" d="M515.75,165.35c-1.34-.3-2.95-.67-2.95-1.82,0-.78,1.01-1.43,2.17-1.43.86,0,1.51.17,1.94.5.45.32.68.78.65,1.38h5.04c.3-3.76-3.55-4.91-7.31-4.91s-7.59,1.02-7.79,4.72c0,1.69.91,3.12,2.75,3.81,3.96,1.49,7.69,1.04,7.69,3.16,0,1.04-1.49,1.56-2.65,1.56-1.82,0-3.08-.8-3.05-2.27h-5.04c.08,4.24,3.81,5.3,8.04,5.3s7.99-1.56,7.99-4.85c0-4.22-4.43-4.48-7.48-5.15Z"/>
  <polygon class="cls-1" points="121.8 96.56 117.1 54.57 90.63 54.57 90.63 149.51 108.71 149.51 108.71 95.42 116.25 149.51 127.92 149.51 135.04 95.71 135.04 149.51 153.12 149.51 153.12 54.57 126.78 54.57 121.8 96.56"/>
  <path class="cls-1" d="M204.36,57.84c-3.13-3.13-5.98-3.7-18.93-3.7-5.69,0-9.96.14-12.38.43-4.55.57-7.4,2.56-9.11,6.26-1.28,2.42-1.57,4.98-1.57,13.09v58.51c0,9.11,1.85,13.52,6.83,15.8,2.71,1.28,5.69,1.56,15.23,1.56,8.83,0,12.38-.29,14.95-1,4.27-1,6.83-3.84,7.97-8.54.71-2.56.71-4.41.71-19.36v-38.15c0-11.53,0-13.52-.28-16.65-.29-3.42-1.42-6.12-3.42-8.26ZM187.99,78.06v51.53c0,3.13-.85,4.41-2.7,4.41-2.14,0-2.99-1.57-2.99-5.13v-50.81c0-2.99,0-5.12.14-5.69.29-1.71,1.42-2.56,2.85-2.56,1.85,0,2.7,1.28,2.7,4.13v4.13Z"/>
  <path class="cls-1" d="M245.78,54.71l-7.12-.14h-21.35v94.94h20.07v-37.86h.85c4.98.14,4.98,0,4.98,9.39v28.47h19.93v-24.62c0-11.11-.28-13.67-2.14-16.94-1.42-2.56-3.42-4.13-6.83-5.27,6.98-1.85,8.97-6.4,8.97-19.64v-9.96c0-14.38-3.42-18.08-17.37-18.36ZM243.22,87.31c0,6.12-.57,6.98-4.41,6.98h-1.42v-24.2h2.13c2.7,0,3.56,1,3.56,4.41l.14,2.56v10.25Z"/>
  <path class="cls-1" d="M414.1,115.59c0-12.81-1.57-15.37-12.81-21.64l-8.54-4.7c-3.7-1.99-4.56-3.13-4.56-6.26v-6.97c0-3.13.14-3.84.43-4.7.42-1,1.56-1.71,2.56-1.71s1.85.71,2.42,1.71c.29.71.43,1.71.43,4.7v11.25h20.07v-13.38c0-8.83-.57-11.82-2.99-14.95-2.99-3.99-6.26-4.84-18.37-4.84-13.81,0-17.51.71-20.64,3.56-2.99,2.71-3.85,6.12-3.85,13.95v11.1c0,11.81,1.56,14.8,10.82,20.07l8.4,4.7c.14.14,1.14.57,2.42,1.28,3.42,1.85,3.84,2.56,3.99,6.12l.14,1.99v12.95c0,2.71-.99,4.27-2.85,4.27-2.13,0-2.99-1.56-2.99-5.41v-18.36h-19.92c.02-.47-.34-.9-.65-1.18,0-3.66-4.16-3.91-3.35-7.94-2.84-5.29-8.74-4.51-12.39-8.17-.71-.63.07-2.34.75-2.31,3.04.51,5.45-5.03,8.2-3.14.1.25.4.51.1.63-.81,1.13.41,2.02,1.12,2.14,1.52-.13,1.62-1.89,1.82-3.28-1.32-2.77-3.95-3.4-5.98-5.04-.92-.63-2.34-.51-3.04-1.39-.3-1.39.81-.38,1.11-1.64-.8-2.41-4.81-4.28-5.62-6.42,1.63-.65,5.03,2.69,6.9,2.37.71-.13,1.02-1.01,1.02-1.89-1.42-1.39-2.03-3.53-2.64-5.42-1.43-2.27-2.44-5.17-5.17-5.17-2.33-.88-.1-3.53-1.02-5.42-.5-1.39-2.13-2.02-2.03-3.66,1.72-1.64-.41-4.28,1.82-5.42-1.62-3.15-1.02-7.44-1.52-11.09,0-1.13-1.12-2.14-1.62-.76.41,7.18-4.36,11.72-5.07,18.4-.71,2.02-2.43,3.02-3.14,4.92,2.64,3.02-1.92,3.65-2.03,6.05.17.21.35.34.58.52-.64.22-1.58.57-2.71.99-.5,1.39,1.12,1.64,1.62,2.52.92,1.89-1.21,2.77-1.93,3.91-.91,3.91-5.37,2.27-5.98,5.93-.1.76.3,1.39.81,1.51,1.93-2.14,4.36-1.13,6.28-3.28,1.21-.63,1.86,3.54-1.19,3.91-1.21.13-2.43-.12-3.24.76-2.13,3.78-5.88,5.67-7.5,9.83-.1,1.01.81.88,1.22,1.13,1.52-.13,2.94-1.26,3.85-2.9,1.92-.13,3.65.38,5.27-.51,1.62-2.65,3.04,1.01,4.87-.13.5.25,1.32.76,1.01,1.64-.41,1.26-1.42,1.39-2.23,1.89-4.66,1.01-10.34.25-12.78,6.81-2.03.88-3.95,3.15-4.05,5.92,2.13,0,3.35-3.4,5.47-4.16,1.42,0,2.64-1.01,3.96-1.01-.11,1.77-2.03,2.52-2.94,3.91-.3.38-.51,1.64.3,1.77,1.32-1.51,3.04-1.26,4.76-1.51,1.01,1.01,2.74.63,3.45,2.02l-2.83,2.39c-.31.5-.21,1.26.2,1.64,1.62.38,3.35,0,4.77,1.01-1.32,1.39-3.24,1.01-4.87.88-3.54-2.52-7.3.88-10.13,3.78-.46,2.5-2.16,3.83-3.67,5.27-.06-8.66-.45-11.06-2.12-14.02-1.42-2.56-3.42-4.13-6.84-5.27,6.98-1.85,8.97-6.4,8.97-19.64v-9.96c0-14.38-3.42-18.08-17.37-18.36l-7.12-.14h-21.35v94.94h20.07v-37.86h.85c4.98.14,4.98,0,4.98,9.39v28.47h16.6l-2.95,2.99v.5c-.1.75.61.88,1.12.88,1.83-2.27,4.16-3.02,6.69-3.53,2.74-2.9,7.1-2.02,10.75-1.89.61.63-.2,1.39-.2,2.27.3,1.01,1.32,1.14,1.93,1.01l5.17-4.54c1.42-.25,3.75-1.64,4.66.63.22,3.67.23,9.51,0,12.98,0,0-.37.16-.83.33-.46.17-1.49.47-1.49.47-3.48,1.44-7.92,1.09-11.96,1.38-2.97.06-6.18-.73-8.88.12-.99.49-.92,1.38-1.94,1.92-1.54.72-1.68,2.34-4.62,2.15-1.93-1.11-10.57-1.14-10.99-.7,0,0-1.85,1.18-2.84,1.66-4.86.1-9.63.46-14.21,1.74-.52.17-1.27.5-.7.84.49.26,1.33.2,1.94.1,7.26.9,14.56-.67,22.02.13.7.35.59.72.72,1.12.38.63,1.45,1.23,2.98,1.33,7.19-1.2,14.45.7,21.7,1.03,1.87-.42,1.15-1.54,3.03-1.95,2.31.54,4.35,1.28,6.85,1.72,2.24-.55,2.99-1.9,4.12-2.8,2.07-2.72,8.51-2.58,13.28-2.95.39-.19.74-.52.34-.71-1.96-.67-4.39-.4-6.64-.42-4.28-1.59-9.02.74-12.78,1.19-1.36.24-1.43,1.56-3.39.89-.51-1.03,2.16-1.45,3.75-2.03,2.22-.94-.04-2.34,1.44-3.58,1.61-.02,3.07.58,4.58.94.96.96,2.75,1.67,5.05,1.83,1.08-.03,2.72-.29,2.54-1.01,3.47-.62,8.48,1.26,9.68-1.33,3.23-.66,6.56-.67,10.08-.14.37.25.34.5.31.74-3.14,1.93-7.01-.48-10.75.35-.74.9-1.67,1.71-1.47,2.62,2.24.84,4.83,1.54,7.71,2.04,1.42,1.47-2.92,1.77-4.17,2.66-3.94.11-6.24-1.44-8.14-2.79-1.76-.77-3.89.23-5.69.54-.95.43-2.01,1.02-1.83,1.75,1.02.28,2.21.08,3.25-.09,1.38.14,3.06.21,3.25.93-1.6.21-4.13.21-4.86,1.11.05.32.34.49.94.58,6.99-.09,20.67-.83,19.96-1.76,1.01.09,1.63.75,2.1,1.26,1.69,1.07,4.44.54,6.76.44,1.96-.15,4.12.62,6,.2.61-2.12-5.44-1.63-6.35-3.28,3.19-.79,6.81.57,9.72,1.01,1.23.56,1.58,1.63,3.28,1.88,3.75.37,5.91.43,9.49.37,1.12.09,2.38.59,3.45-.13.18-1.35.05-1.4-2.08-2.41-2.48-.88-6.25.45-7.44-1.18.05-.88-1.8-2.1-1.8-2.1-.79-.81-5.75-1.23-7.1-1.81-3.58-1.23.71-3.81-4.53-4.15-9.37-2.54-19.75-1.56-29.37-.91-1.24.07-3.24.19-3.91-.33l-.91-.94c-1.32-3.41-.32-8.56-.42-12.34l.51-.76c5.68.25,10.85,1.76,16.83,1.64l1.21-.76c-.71-4.03-5.37-2.02-6.19-6.05.61-1.14,1.93-.5,2.74-.5,1.32.18,2.72.16,4.08.08.51,1.39,1.21,2.56,2.21,3.63,3.13,3.56,6.4,4.27,18.22,4.27,14.8,0,18.22-.85,21.35-5.12,2.28-2.99,2.85-5.69,2.85-13.95v-15.23ZM298.31,87.31c0,6.12-.57,6.98-4.41,6.98h-1.42v-24.2h2.14c2.7,0,3.56,1,3.56,4.41l.14,2.56v10.25ZM332.14,123.64c-1.72,1.63-4.16,1.01-5.88,2.9-.61,1.39,1.12,1.39,1.52,2.39-.1,1.26-1.32,1.77-1.72,3.03-1.6,4.21-5.55,5.06-7.82,8.39v-14.55c.73-.36,1.52-.5,2.34-.64,1.73-3.02,4.57-3.02,7.3-2.39,1.72.38,2.03-2.52,3.75-2.02,1.93,1.13,4.56,1.01,6.09,1.89-1.42,1.64-3.76,1.13-5.58,1.01ZM356.97,108.77c2.33-1.89,4.26,1.76,6.7,1.01,1.62-.13,2.94,2.01,4.46,1.01.09-.14.13-.29.14-.43v10.75c-.36-.35-.69-.74-.85-1.25-1.01-.75-2.23-.88-2.94-2.27-1.01-5.93-7.09-5.8-10.44-7.69l2.94-1.13ZM364.88,133.47c-2.83-3.02-6.69-2.01-9.02-6.05,2.33-1.01,5.37.25,7.5-1.01,1.65-.11,3.22,1.8,4.91,1.5,0,4.66,0,6.96.14,8.6-1.06-1.4-2.02-2.87-3.52-3.03Z"/>
  <path class="cls-1" d="M467.05,140.28c.71-2.56.71-4.41.71-19.36v-38.15c0-11.53,0-13.52-.29-16.65-.29-3.42-1.42-6.12-3.42-8.26-3.13-3.13-5.98-3.7-18.93-3.7-5.7,0-9.96.14-12.38.43-4.56.57-7.4,2.56-9.11,6.26-1.28,2.42-1.57,4.98-1.57,13.1v58.5c0,9.11,1.85,13.52,6.84,15.8,2.7,1.28,5.69,1.57,15.23,1.57,8.83,0,12.38-.29,14.95-1,4.27-1,6.83-3.84,7.97-8.54ZM447.69,78.08v51.53c0,3.13-.85,4.41-2.7,4.41-2.14,0-2.99-1.56-2.99-5.12v-50.82c0-2.99,0-5.12.14-5.69.29-1.71,1.42-2.56,2.85-2.56,1.85,0,2.7,1.28,2.7,4.13v4.13Z"/>
  <polygon class="cls-1" points="523.14 54.59 505.77 54.59 505.77 102.56 496.52 54.59 477.02 54.59 477.02 149.53 493.82 149.53 493.82 104.13 502.64 149.53 523.14 149.53 523.14 54.59"/>
</svg>